<svg width="139" height="67" viewBox="0 0 139 67" fill="none" xmlns="http://www.w3.org/2000/svg">
<g clip-path="url(#clip0_1_101)">
<path d="M26.4072 19.4894C24.8686 17.7466 22.0843 17 18.5223 17H8.185C7.45694 17 6.83819 17.5259 6.72269 18.2375L2.41832 45.3202C2.33375 45.8544 2.75038 46.337 3.29488 46.337H9.67625L11.2788 36.2514L11.2293 36.569C11.3428 35.8574 11.9594 35.3315 12.6875 35.3315H15.7194C21.6779 35.3315 26.3413 32.9308 27.7046 25.9863C27.7458 25.7801 27.8098 25.3841 27.8098 25.3841C28.1974 22.8142 27.8076 21.0714 26.4072 19.4894Z" fill="#ABAFB8"/>
<path d="M29.4246 26.7C27.9437 33.5371 23.2186 37.1548 15.7193 37.1548H13.0009L10.9714 50H15.3811C16.0184 50 16.5608 49.5401 16.6598 48.9151L16.7114 48.6429L17.7261 42.2677L17.7921 41.9171C17.8911 41.2921 18.4336 40.8322 19.0688 40.8322H19.8752C25.0872 40.8322 29.1668 38.7326 30.3589 32.6585C30.8374 30.2206 30.6064 28.1767 29.4246 26.7Z" fill="#ABAFB8"/>
</g>
<path d="M50.45 37.04C54.74 37.04 57.92 33.92 57.92 29.87C57.92 25.82 54.74 22.7 50.45 22.7H43.37V44H47.72V37.04H50.45ZM50.39 26.78C52.34 26.78 53.69 28.1 53.69 29.87C53.69 31.64 52.34 32.96 50.39 32.96H47.72V26.78H50.39ZM70.5287 44H74.6387V29H70.5287V30.68C69.7787 29.6 68.1287 28.67 66.2087 28.67C62.3387 28.58 59.0687 32.33 59.1587 36.5C59.0687 40.67 62.3387 44.42 66.2087 44.33C68.1287 44.33 69.7787 43.4 70.5287 42.32V44ZM63.2987 36.5C63.2987 34.13 64.8287 32.42 67.0787 32.42C69.3287 32.42 70.8587 34.13 70.8587 36.5C70.8587 38.87 69.3287 40.58 67.0787 40.58C64.8287 40.58 63.2987 38.87 63.2987 36.5ZM89.2243 29L85.2343 38.72L81.2143 29H76.7143L83.0143 43.16L79.8643 50.27H84.3343L93.7543 29H89.2243ZM99.8537 42.32C100.604 43.4 102.284 44.33 104.204 44.33C108.074 44.42 111.344 40.67 111.254 36.5C111.344 32.33 108.074 28.58 104.204 28.67C102.284 28.67 100.604 29.6 99.8537 30.68V29H95.7437V50.27H99.8537V42.32ZM99.5237 36.5C99.5237 34.13 101.054 32.42 103.304 32.42C105.554 32.42 107.084 34.13 107.084 36.5C107.084 38.87 105.554 40.58 103.304 40.58C101.054 40.58 99.5237 38.87 99.5237 36.5ZM124.669 44H128.779V29H124.669V30.68C123.919 29.6 122.269 28.67 120.349 28.67C116.479 28.58 113.209 32.33 113.299 36.5C113.209 40.67 116.479 44.42 120.349 44.33C122.269 44.33 123.919 43.4 124.669 42.32V44ZM117.439 36.5C117.439 34.13 118.969 32.42 121.219 32.42C123.469 32.42 124.999 34.13 124.999 36.5C124.999 38.87 123.469 40.58 121.219 40.58C118.969 40.58 117.439 38.87 117.439 36.5ZM132.775 21.5V44H136.885V21.5H132.775Z" fill="#ABAFB8"/>
<defs>
<clipPath id="clip0_1_101">
<rect width="33" height="33" fill="white" transform="translate(0 17)"/>
</clipPath>
</defs>
</svg>
