<svg width="32" height="32" viewBox="0 0 32 32" fill="none" xmlns="http://www.w3.org/2000/svg">
<g clip-path="url(#clip0_1_177)">
<path d="M31 14H27.46L18.832 3.95C18.932 3.65 19 3.334 19 3C19 1.346 17.654 0 16 0C14.346 0 13 1.346 13 3C13 3.334 13.068 3.65 13.168 3.95L4.54 14H1C0.448 14 0 14.448 0 15V31C0 31.552 0.448 32 1 32H31C31.552 32 32 31.552 32 31V15C32 14.448 31.552 14 31 14ZM16 2C16.552 2 17 2.448 17 3C17 3.552 16.552 4 16 4C15.448 4 15 3.552 15 3C15 2.448 15.448 2 16 2ZM14.434 5.546C14.89 5.828 15.424 6 16 6C16.576 6 17.11 5.828 17.566 5.546L24.824 14H7.176L14.434 5.546ZM30 30H2V16H30V30Z" fill="#0165C3"/>
<path d="M9 26H6V25C6 24.448 6.448 24 7 24C8.654 24 10 22.654 10 21C10 19.346 8.654 18 7 18H5C4.448 18 4 18.448 4 19C4 19.552 4.448 20 5 20H7C7.552 20 8 20.448 8 21C8 21.552 7.552 22 7 22C5.346 22 4 23.346 4 25V27C4 27.552 4.448 28 5 28H9C9.552 28 10 27.552 10 27C10 26.448 9.552 26 9 26Z" fill="#0165C3"/>
<path d="M17 18C16.448 18 16 18.448 16 19V22H14V19C14 18.448 13.552 18 13 18C12.448 18 12 18.448 12 19V23C12 23.552 12.448 24 13 24H16V27C16 27.552 16.448 28 17 28C17.552 28 18 27.552 18 27V19C18 18.448 17.552 18 17 18Z" fill="#0165C3"/>
<path d="M27 18C26.448 18 26 18.448 26 19V22H24V19C24 18.448 23.552 18 23 18C22.448 18 22 18.448 22 19V27C22 27.552 22.448 28 23 28C23.552 28 24 27.552 24 27V24H26V27C26 27.552 26.448 28 27 28C27.552 28 28 27.552 28 27V19C28 18.448 27.552 18 27 18Z" fill="#0165C3"/>
</g>
<defs>
<clipPath id="clip0_1_177">
<rect width="32" height="32" fill="white"/>
</clipPath>
</defs>
</svg>
