<svg width="32" height="32" viewBox="0 0 32 32" fill="none" xmlns="http://www.w3.org/2000/svg">
<path d="M19 22.0002H13C12.448 22.0002 12 22.4482 12 23.0002C12 23.5522 12.448 24.0002 13 24.0002H19C19.552 24.0002 20 23.5522 20 23.0002C20 22.4482 19.552 22.0002 19 22.0002Z" fill="#EFD357"/>
<path d="M31 9.00008H25.618L21.894 1.55208C21.646 1.05808 21.048 0.86008 20.552 1.10408C20.058 1.35208 19.858 1.95208 20.104 2.44608L23.382 9.00008H8.618L11.894 2.44808C12.14 1.95408 11.942 1.35208 11.448 1.10608C10.954 0.86408 10.354 1.05808 10.106 1.55208L6.382 9.00008H1C0.448 9.00008 0 9.44808 0 10.0001V14.0001C0 14.5521 0.448 15.0001 1 15.0001H2.218L6.028 30.2421C6.14 30.6881 6.542 31.0001 7 31.0001H25C25.458 31.0001 25.86 30.6881 25.97 30.2421L29.782 15.0001H31C31.552 15.0001 32 14.5521 32 14.0001V10.0001C32 9.44808 31.552 9.00008 31 9.00008ZM24.218 29.0001H7.782L4.282 15.0001H27.72L24.218 29.0001ZM30 13.0001H2V11.0001H30V13.0001Z" fill="#EFD357"/>
</svg>
