<svg width="35" height="35" viewBox="0 0 35 35" fill="none" xmlns="http://www.w3.org/2000/svg">
<path d="M33.9062 21.8746C33.3025 21.8746 32.8125 22.3646 32.8125 22.9684V30.6246H2.1875V17.4996H14.2188C14.8225 17.4996 15.3125 17.0096 15.3125 16.4059C15.3125 15.8021 14.8225 15.3121 14.2188 15.3121H2.1875V10.9371H14.2188C14.8225 10.9371 15.3125 10.4471 15.3125 9.84338C15.3125 9.23963 14.8225 8.74963 14.2188 8.74963H2.1875C0.98 8.74963 0 9.72963 0 10.9371V30.6246C0 31.8321 0.98 32.8121 2.1875 32.8121H32.8125C34.02 32.8121 35 31.8321 35 30.6246V22.9684C35 22.3646 34.51 21.8746 33.9062 21.8746Z" fill="#64A7AE"/>
<path d="M9.84375 21.8746H5.46875C4.865 21.8746 4.375 22.3646 4.375 22.9684C4.375 23.5721 4.865 24.0621 5.46875 24.0621H9.84375C10.4475 24.0621 10.9375 23.5721 10.9375 22.9684C10.9375 22.3646 10.4475 21.8746 9.84375 21.8746Z" fill="#64A7AE"/>
<path d="M34.3372 5.55607L26.6809 2.27482C26.4031 2.15888 26.0947 2.15888 25.8169 2.27482L18.1606 5.55607C17.7603 5.72888 17.5 6.12482 17.5 6.56232V10.9373C17.5 16.9551 19.7247 20.4726 25.7053 23.9179C25.8738 24.0142 26.0619 24.0623 26.25 24.0623C26.4381 24.0623 26.6262 24.0142 26.7947 23.9179C32.7753 20.4814 35 16.9639 35 10.9373V6.56232C35 6.12482 34.7397 5.72888 34.3372 5.55607ZM32.8125 10.9373C32.8125 15.9883 31.1413 18.7686 26.25 21.6998C21.3587 18.762 19.6875 15.9817 19.6875 10.9373V7.28419L26.25 4.47107L32.8125 7.28419V10.9373Z" fill="#64A7AE"/>
<path d="M30.2162 8.98791C29.7459 8.61603 29.059 8.68822 28.6784 9.15853L25.2396 13.4592L23.879 11.4248C23.54 10.9217 22.8596 10.7882 22.3631 11.1207C21.8622 11.4554 21.7243 12.1357 22.059 12.6367L24.2465 15.9179C24.4412 16.2088 24.7606 16.3882 25.1106 16.4057C25.1259 16.4057 25.1434 16.4057 25.1565 16.4057C25.4868 16.4057 25.8018 16.257 26.0118 15.9945L30.3868 10.5257C30.7631 10.0532 30.6887 9.36635 30.2162 8.98791Z" fill="#64A7AE"/>
</svg>
